<svg width="3360" height="2163" xmlns="http://www.w3.org/2000/svg" xmlns:xlink="http://www.w3.org/1999/xlink"><defs><text id="b" font-family="STYuanti-TC-Bold, Yuanti TC" font-size="94" font-weight="bold"><tspan x="76" y="369" fill="#17E8DA">@layer </tspan> <tspan x="411.11" y="369" fill="#0A7AFF">setting </tspan> <tspan x="752.612" y="369" fill="#17E8DA">, </tspan> <tspan x="817.284" y="369" fill="#34C759">tool </tspan> <tspan x="1030.006" y="369" fill="#17E8DA">, </tspan> <tspan x="1094.678" y="369" fill="#5856D6">generic </tspan> <tspan x="1444.734" y="369" fill="#17E8DA">, </tspan> <tspan x="1509.406" y="369" fill="#FF9500">element </tspan> <tspan x="1893.114" y="369" fill="#17E8DA">, </tspan> <tspan x="1957.786" y="369" fill="#FF2D55">object </tspan> <tspan x="2274.472" y="369" fill="#17E8DA">, </tspan> <tspan x="2339.144" y="369" fill="#5AC8FA">component </tspan> <tspan x="2862.254" y="369" fill="#17E8DA">, </tspan> <tspan x="2926.926" y="369" fill="#FC0">utilities </tspan> <tspan x="3259.686" y="369" fill="#17E8DA">；</tspan></text><filter x="0%" y="-.3%" width="100.1%" height="101.1%" filterUnits="objectBoundingBox" id="a"><feOffset dx="1" dy="1" in="SourceAlpha" result="shadowOffsetOuter1"/><feColorMatrix values="0 0 0 0 0.983076455 0 0 0 0 0.983076455 0 0 0 0 0.983076455 0 0 0 1 0" in="shadowOffsetOuter1"/></filter><linearGradient x1="0%" y1="50.001%" y2="49.999%" id="c"><stop stop-color="#0A7AFF" offset="0%"/><stop stop-color="#FC0" offset="100%"/></linearGradient><linearGradient x1="0%" y1="60.579%" y2="38.564%" id="d"><stop stop-color="#0A7AFF" offset="0%"/><stop stop-color="#FC0" offset="100%"/></linearGradient></defs><g fill="none" fill-rule="evenodd"><path fill="#131415" d="M0 0H3360V2163H0z"/><text font-family="STYuanti-TC-Bold, Yuanti TC" font-size="60" font-weight="bold" fill="#0D7BFB"><tspan x="519" y="130">低优先级(Low Priority)</tspan></text><text transform="rotate(27 614 1025)" font-family="STYuanti-TC-Bold, Yuanti TC" font-size="60" font-weight="bold" fill="#0D7BFB"><tspan x="313" y="1058">低优先级(Low Priority)</tspan></text><text font-family="STYuanti-TC-Bold, Yuanti TC" font-size="60" font-weight="bold" fill="#FC0"><tspan x="2461.5" y="130">高优先级(High Priority)</tspan></text><text transform="rotate(26 2538 1967)" font-family="STYuanti-TC-Bold, Yuanti TC" font-size="60" font-weight="bold" fill="#FC0"><tspan x="2228.5" y="2000">高优先级(High Priority)</tspan></text><g fill="#17E8DA"><use filter="url(#a)" xlink:href="#b"/><use xlink:href="#b"/></g><path d="M416 272h294c6.075 0 11 4.925 11 11v94c0 6.075-4.925 11-11 11H416c-6.075 0-11-4.925-11-11v-94c0-6.075 4.925-11 11-11z" stroke="#0A7AFF" stroke-width="4" stroke-dasharray="7"/><path d="M806 272h181c6.075 0 11 4.925 11 11v94c0 6.075-4.925 11-11 11H806c-6.075 0-11-4.925-11-11v-94c0-6.075 4.925-11 11-11z" stroke="#34C759" stroke-width="4" stroke-dasharray="7"/><path d="M1094 272h315c6.075 0 11 4.925 11 11v94c0 6.075-4.925 11-11 11h-315c-6.075 0-11-4.925-11-11v-94c0-6.075 4.925-11 11-11z" stroke="#5856D6" stroke-width="4" stroke-dasharray="7"/><path d="M1505 269h351c6.075 0 11 4.925 11 11v94c0 6.075-4.925 11-11 11h-351c-6.075 0-11-4.925-11-11v-94c0-6.075 4.925-11 11-11z" stroke="#FF9500" stroke-width="4" stroke-dasharray="7"/><path d="M1952 269h294c6.075 0 11 4.925 11 11v94c0 6.075-4.925 11-11 11h-294c-6.075 0-11-4.925-11-11v-94c0-6.075 4.925-11 11-11z" stroke="#FF2D55" stroke-width="4" stroke-dasharray="7"/><path d="M2342 269h477c6.075 0 11 4.925 11 11v94c0 6.075-4.925 11-11 11h-477c-6.075 0-11-4.925-11-11v-94c0-6.075 4.925-11 11-11z" stroke="#5AC8FA" stroke-width="4" stroke-dasharray="7"/><path d="M2915 272h315c6.075 0 11 4.925 11 11v94c0 6.075-4.925 11-11 11h-315c-6.075 0-11-4.925-11-11v-94c0-6.075 4.925-11 11-11z" stroke="#FC0" stroke-width="4" stroke-dasharray="7"/><rect fill="#0A7AFF" x="405" y="545" width="350" height="140" rx="10"/><text font-family="STYuanti-TC-Bold, Yuanti TC" font-size="80" font-weight="bold" fill="#FFF"><tspan x="422" y="659">Layer ①</tspan></text><rect fill="#34C759" x="721" y="721" width="350" height="140" rx="10"/><text font-family="STYuanti-TC-Bold, Yuanti TC" font-size="80" font-weight="bold" fill="#FFF"><tspan x="738" y="835">Layer ②</tspan></text><rect fill="#5856D6" x="1070" y="897" width="350" height="140" rx="10"/><text font-family="STYuanti-TC-Bold, Yuanti TC" font-size="80" font-weight="bold" fill="#FFF"><tspan x="1087" y="1011">Layer ③</tspan></text><rect fill="#FF9500" x="1477" y="1054" width="350" height="140" rx="10"/><text font-family="STYuanti-TC-Bold, Yuanti TC" font-size="80" font-weight="bold" fill="#FFF"><tspan x="1494" y="1168">Layer ④</tspan></text><rect fill="#FF2D55" x="1907" y="1230" width="350" height="140" rx="10"/><text font-family="STYuanti-TC-Bold, Yuanti TC" font-size="80" font-weight="bold" fill="#FFF"><tspan x="1924" y="1344">Layer ⑤</tspan></text><rect fill="#5AC8FA" x="2331" y="1391" width="350" height="140" rx="10"/><text font-family="STYuanti-TC-Bold, Yuanti TC" font-size="80" font-weight="bold" fill="#FFF"><tspan x="2348" y="1505">Layer ⑥</tspan></text><rect fill="#FC0" x="2754" y="1569" width="350" height="140" rx="10"/><text font-family="STYuanti-TC-Bold, Yuanti TC" font-size="80" font-weight="bold" fill="#FFF"><tspan x="2771" y="1686">Layer ⑦</tspan></text><path d="M551.283 371.501c9.389-.12 17.096 7.394 17.216 16.782.106 8.365-5.847 15.395-13.786 16.914l1.353 106.267 14-.178L553.5 545.5l-17.432-33.78 13.999-.179-1.354-106.268c-7.872-1.298-13.947-8.015-14.204-16.233l-.008-.323c-.12-9.389 7.394-17.096 16.782-17.216z" fill="#0A7AFF" fill-rule="nonzero"/><path d="M896.475 367.5c9.389-.014 17.011 7.586 17.025 16.975.012 8.365-6.02 15.328-13.976 16.757l.425 285.763 14-.02L897 721l-17.05-33.975 13.999-.021-.425-285.764c-7.857-1.387-13.855-8.171-14.02-16.392l-.004-.323c-.014-9.389 7.586-17.011 16.975-17.025z" fill="#34C759" fill-rule="nonzero"/><path d="M1250.45 371.5c9.389-.028 17.022 7.561 17.05 16.95.025 8.365-5.997 15.337-13.95 16.777l1.349 457.764 14-.041L1252 897l-17.1-33.95 13.999-.041-1.35-457.764c-7.86-1.376-13.868-8.152-14.045-16.372l-.004-.323c-.028-9.389 7.561-17.022 16.95-17.05z" fill="#5856D6" fill-rule="nonzero"/><path d="M1679.462 368.5c9.389-.021 17.017 7.573 17.038 16.962.019 8.365-6.007 15.332-13.962 16.767l1.385 617.764 14-.031L1681 1054l-17.076-33.962 13.999-.032-1.386-617.763c-7.858-1.381-13.862-8.162-14.033-16.382l-.004-.323c-.021-9.389 7.573-17.017 16.962-17.038z" fill="#FF9500" fill-rule="nonzero"/><path d="M2097.47 371.5c9.389-.017 17.013 7.58 17.03 16.97.015 8.365-6.015 15.33-13.97 16.76l1.409 790.764 14-.024L2099 1230l-17.06-33.97 13.999-.025-1.41-790.764c-7.857-1.384-13.858-8.167-14.025-16.388l-.004-.323c-.017-9.389 7.58-17.013 16.97-17.03z" fill="#FF2D55" fill-rule="nonzero"/><path d="M2579.475 368.5c9.388-.014 17.011 7.586 17.025 16.975.012 8.365-6.02 15.328-13.976 16.757l1.425 954.763 14-.02L2581 1391l-17.05-33.975 13.999-.021-1.425-954.763c-7.857-1.388-13.855-8.172-14.02-16.393l-.004-.323c-.014-9.388 7.586-17.011 16.975-17.025z" fill="#5AC8FA" fill-rule="nonzero"/><path d="M3029.493 371.5c9.389-.004 17.003 7.604 17.007 16.993.004 8.365-6.036 15.322-13.993 16.742l.478 1129.763 14-.005L3030 1569l-17.014-33.993 13.999-.006-.478-1129.764c-7.856-1.395-13.847-8.186-14.004-16.407l-.003-.323c-.004-9.389 7.604-17.003 16.993-17.007z" fill="#FC0" fill-rule="nonzero"/><path d="M452.782 97c28.926.138 52.933 20.894 58.161 48.276l2593.668 12.298 52.042.246-57.581-32.75-9.997-5.685 11.371-19.993 9.996 5.686 95.743 54.454 17.772 10.108-17.867 9.938-96.255 53.544-10.05 5.59-11.18-20.099 10.05-5.59 57.889-32.203-52.042-.247-2593.668-12.296c-5.487 27.332-29.69 47.86-58.616 47.722-32.86-.155-59.373-26.92-59.217-59.781.155-32.86 26.92-59.373 59.781-59.217z" fill="url(#c)" fill-rule="nonzero"/><path d="M255.819 783.838c14.172-29.648 49.696-42.192 79.343-28.02 26.098 12.477 38.943 41.497 31.978 68.49l2531.702 1210.277 46.421 22.192-38.081-54.202-6.611-9.41 18.819-13.222 6.611 9.41 63.322 90.124 11.753 16.728-20.4 1.357-109.901 7.315-11.475.764-1.527-22.95 11.474-.763 66.098-4.4-46.423-22.192L357.219 845.059c-16.632 22.372-47.283 30.598-73.381 18.122-29.648-14.173-42.192-49.696-28.02-79.343z" fill="url(#d)" fill-rule="nonzero"/></g></svg>