<svg width="3277" height="1705" xmlns="http://www.w3.org/2000/svg"><g fill="none" fill-rule="evenodd"><path fill="#131415" d="M0 0H3277V1705H0z"/><path stroke="#FF9500" stroke-width="16" d="M1007.5 169.5L2207.5 169.5 1607.5 1369.5z"/><path d="M1051.5 55.5v18h377v8h-377v18l-44-22 44-22z" fill="#F4EFE8" fill-rule="nonzero"/><path d="M2163.5 55.5v18h-377v8h377v18l44-22-44-22z" fill="#F4EFE8" fill-rule="nonzero"/><text font-family="STYuanti-TC-Bold, Yuanti TC" font-size="70" font-weight="bold" fill="#F4EFE8"><tspan x="1501.565" y="102">REACH</tspan></text><text font-family="STYuanti-TC-Bold, Yuanti TC" font-size="100" font-weight="bold" fill="#F4EFE8"><tspan x="580.9" y="1575">ITCSS(Inverted Triangle Cascading Style Sheets)</tspan></text><text font-family="STYuanti-TC-Bold, Yuanti TC" font-size="70" font-weight="bold" fill="#0A7AFF"><tspan x="1454.775" y="273">SETTINGS</tspan></text><text font-family="STYuanti-TC-Bold, Yuanti TC" font-size="70" font-weight="bold" fill="#34C759"><tspan x="1466.395" y="549">GENERIC</tspan></text><text font-family="STYuanti-TC-Bold, Yuanti TC" font-size="70" font-weight="bold" fill="#5856D6"><tspan x="1447.56" y="691">ELEMENTS</tspan></text><text font-family="STYuanti-TC-Bold, Yuanti TC" font-size="70" font-weight="bold" fill="#FF9500"><tspan x="1501.095" y="403">TOOLS</tspan></text><text font-family="STYuanti-TC-Bold, Yuanti TC" font-size="70" font-weight="bold" fill="#FF2D55"><tspan x="1467.075" y="834">OBJECTS</tspan></text><text font-family="STYuanti-TC-Bold, Yuanti TC" font-size="60" font-weight="bold" fill="#5AC8FA"><tspan x="1419.3" y="963">COMPONENTS</tspan></text><text font-family="STYuanti-TC-Bold, Yuanti TC" font-size="60" font-weight="bold" fill="#FC0"><tspan x="1501.58" y="1127">TRUMPS</tspan></text><path stroke="#FF9500" stroke-width="16" stroke-linecap="square" d="M1087.5 310.5L2133.5 310.5"/><path stroke="#FF9500" stroke-width="16" stroke-linecap="square" d="M1160 452L2058 452"/><path stroke="#FF9500" stroke-width="16" stroke-linecap="square" d="M1222 593L1985 594"/><path stroke="#FF9500" stroke-width="16" stroke-linecap="square" d="M1295 736L1914 736"/><path stroke="#FF9500" stroke-width="16" stroke-linecap="square" d="M1365 877L1847 877"/><path stroke="#FF9500" stroke-width="16" stroke-linecap="square" d="M1439 1018L1775 1018"/><rect fill="#0A7AFF" x="2556" y="144" width="685" height="185" rx="23"/><text font-family="STYuanti-TC-Bold, Yuanti TC" font-size="50" font-weight="bold" fill="#F4EFE8"><tspan x="2724" y="220">全局配置和变量</tspan> <tspan x="2578.225" y="290">(Global Config and Variables)</tspan></text><path d="M2527.008 249.985L2551 262l-24.008 11.985.016-24zm-770.5-.485c5.945.004 10.878 4.331 11.827 10.007l10.165.007 2 .001-.002 4-2-.001-10.165-.006c-.956 5.675-5.895 9.996-11.84 9.992-6.628-.004-11.997-5.38-11.993-12.008.004-6.627 5.38-11.996 12.008-11.992zm751.992 10.473l2 .002 12 .007 2 .001-.002 4h-2l-12-.008-2-.002.002-4zm-24-.015l2 .001 12 .008 2 .001-.002 4-2-.001-12-.008h-2l.002-4zm-24-.015l2 .001 12 .008 2 .001-.002 4-2-.001-12-.008-2-.001.002-4zm-24-.015l2 .001 12 .008 2 .001-.002 4-2-.001-12-.008-2-.001.002-4zm-24-.015l2 .001 12 .008h2l-.002 4h-2l-12-.008-2-.001.002-4zm-24-.015l2 .001 12 .008h2l-.002 4h-2l-12-.008-2-.001.002-4zm-24-.015h2l12 .008 2 .002-.002 4-2-.002-12-.007-2-.001.002-4zm-24-.015h2l12 .008 2 .002-.002 4-2-.002-12-.007-2-.001.002-4zm-24-.016l2 .002 12 .007 2 .001-.002 4h-2l-12-.008-2-.002.002-4zm-24-.015l2 .002 12 .007 2 .001-.002 4h-2l-12-.008-2-.002.002-4zm-24-.015l2 .001 12 .008 2 .001-.002 4-2-.001-12-.008h-2l.002-4zm-24-.015l2 .001 12 .008 2 .001-.002 4-2-.001-12-.008h-2l.002-4zm-24-.015l2 .001 12 .008 2 .001-.002 4-2-.001-12-.008-2-.001.002-4zm-24-.015l2 .001 12 .008 2 .001-.002 4-2-.001-12-.008-2-.001.002-4zm-24-.015l2 .001 12 .008h2l-.002 4h-2l-12-.008-2-.001.002-4zm-24-.015l2 .001 12 .008h2l-.002 4h-2l-12-.008-2-.001.002-4zm-24-.015h2l12 .008 2 .002-.002 4-2-.002-12-.007-2-.001.002-4zm-24-.016l2 .002 12 .007 2 .002-.002 4-2-.002-12-.007-2-.002.002-4zm-24-.015l2 .002 12 .007 2 .001-.002 4h-2l-12-.008-2-.002.002-4zm-24-.015l2 .002 12 .007 2 .001-.002 4h-2l-12-.008-2-.002.002-4zm-24-.015l2 .001 12 .008 2 .001-.002 4-2-.001-12-.008h-2l.002-4zm-24-.015l2 .001 12 .008 2 .001-.002 4-2-.001-12-.008h-2l.002-4zm-24-.015l2 .001 12 .008 2 .001-.002 4-2-.001-12-.008-2-.001.002-4zm-24-.015l2 .001 12 .008h2l-.002 4h-2l-12-.008-2-.001.002-4zm-24-.015l2 .001 12 .008h2l-.002 4h-2l-12-.008-2-.001.002-4zm-24-.015h2l12 .008 2 .002-.002 4-2-.002-12-.007-2-.001.002-4zm-24-.015h2l12 .008 2 .002-.002 4-2-.002-12-.007-2-.001.002-4zm-24-.016l2 .002 12 .007 2 .002-.002 4-2-.002-12-.007-2-.002.002-4zm-24-.015l2 .002 12 .007 2 .001-.002 4h-2l-12-.008-2-.002.002-4zm-24-.015l2 .002 12 .007 2 .001-.002 4h-2l-12-.009h-2l.002-4zm-24-.015l2 .001 12 .008 2 .001-.002 4-2-.001-12-.008h-2l.002-4z" fill="#0A7AFF" fill-rule="nonzero"/><rect fill="#34C759" x="2539" y="419" width="685" height="185" rx="23"/><text font-family="STYuanti-TC-Bold, Yuanti TC" font-size="50" font-weight="bold" fill="#F4EFE8"><tspan x="2641.4" y="495">重置CSS或第三方样式</tspan> <tspan x="2615.825" y="565">(Reset CSS or 3rd Party)</tspan></text><path d="M2510.008 524.985L2534 537l-24.008 11.985.016-24zm-770.5-.485c5.945.004 10.878 4.331 11.827 10.007l10.165.007 2 .001-.002 4-2-.001-10.165-.006c-.956 5.675-5.895 9.996-11.84 9.992-6.628-.004-11.997-5.38-11.993-12.008.004-6.627 5.38-11.996 12.008-11.992zm751.992 10.473l2 .002 12 .007 2 .001-.002 4h-2l-12-.008-2-.002.002-4zm-24-.015l2 .001 12 .008 2 .001-.002 4-2-.001-12-.008h-2l.002-4zm-24-.015l2 .001 12 .008 2 .001-.002 4-2-.001-12-.008-2-.001.002-4zm-24-.015l2 .001 12 .008 2 .001-.002 4-2-.001-12-.008-2-.001.002-4zm-24-.015l2 .001 12 .008h2l-.002 4h-2l-12-.008-2-.001.002-4zm-24-.015l2 .001 12 .008h2l-.002 4h-2l-12-.008-2-.001.002-4zm-24-.015h2l12 .008 2 .002-.002 4-2-.002-12-.007-2-.001.002-4zm-24-.015h2l12 .008 2 .002-.002 4-2-.002-12-.007-2-.001.002-4zm-24-.016l2 .002 12 .007 2 .001-.002 4h-2l-12-.008-2-.002.002-4zm-24-.015l2 .002 12 .007 2 .001-.002 4h-2l-12-.008-2-.002.002-4zm-24-.015l2 .001 12 .008 2 .001-.002 4-2-.001-12-.008h-2l.002-4zm-24-.015l2 .001 12 .008 2 .001-.002 4-2-.001-12-.008h-2l.002-4zm-24-.015l2 .001 12 .008 2 .001-.002 4-2-.001-12-.008-2-.001.002-4zm-24-.015l2 .001 12 .008 2 .001-.002 4-2-.001-12-.008-2-.001.002-4zm-24-.015l2 .001 12 .008h2l-.002 4h-2l-12-.008-2-.001.002-4zm-24-.015l2 .001 12 .008h2l-.002 4h-2l-12-.008-2-.001.002-4zm-24-.015h2l12 .008 2 .002-.002 4-2-.002-12-.007-2-.001.002-4zm-24-.016l2 .002 12 .007 2 .002-.002 4-2-.002-12-.007-2-.002.002-4zm-24-.015l2 .002 12 .007 2 .001-.002 4h-2l-12-.008-2-.002.002-4zm-24-.015l2 .002 12 .007 2 .001-.002 4h-2l-12-.008-2-.002.002-4zm-24-.015l2 .001 12 .008 2 .001-.002 4-2-.001-12-.008h-2l.002-4zm-24-.015l2 .001 12 .008 2 .001-.002 4-2-.001-12-.008h-2l.002-4zm-24-.015l2 .001 12 .008 2 .001-.002 4-2-.001-12-.008-2-.001.002-4zm-24-.015l2 .001 12 .008h2l-.002 4h-2l-12-.008-2-.001.002-4zm-24-.015l2 .001 12 .008h2l-.002 4h-2l-12-.008-2-.001.002-4zm-24-.015h2l12 .008 2 .002-.002 4-2-.002-12-.007-2-.001.002-4zm-24-.015h2l12 .008 2 .002-.002 4-2-.002-12-.007-2-.001.002-4zm-24-.016l2 .002 12 .007 2 .002-.002 4-2-.002-12-.007-2-.002.002-4zm-24-.015l2 .002 12 .007 2 .001-.002 4h-2l-12-.008-2-.002.002-4zm-24-.015l2 .002 12 .007 2 .001-.002 4h-2l-12-.008-2-.002.002-4zm-24-.015l2 .001 12 .008 2 .001-.002 4-2-.001-12-.008h-2l.002-4z" fill="#34C759" fill-rule="nonzero"/><rect fill="#FF2D55" x="2540" y="705" width="685" height="185" rx="23"/><text font-family="STYuanti-TC-Bold, Yuanti TC" font-size="50" font-weight="bold" fill="#F4EFE8"><tspan x="2558" y="781">常见的无语义的结构设计模式</tspan> <tspan x="2699.05" y="851">（结构或布局类)</tspan></text><path d="M2511.008 810.985L2535 823l-24.008 11.985.016-24zm-770.5-.485c5.945.004 10.878 4.331 11.827 10.007l10.165.007 2 .001-.002 4-2-.001-10.165-.006c-.956 5.675-5.895 9.996-11.84 9.992-6.628-.004-11.997-5.38-11.993-12.008.004-6.627 5.38-11.996 12.008-11.992zm751.992 10.473l2 .002 12 .007 2 .001-.002 4h-2l-12-.008-2-.002.002-4zm-24-.015l2 .001 12 .008 2 .001-.002 4-2-.001-12-.008h-2l.002-4zm-24-.015l2 .001 12 .008 2 .001-.002 4-2-.001-12-.008-2-.001.002-4zm-24-.015l2 .001 12 .008 2 .001-.002 4-2-.001-12-.008-2-.001.002-4zm-24-.015l2 .001 12 .008h2l-.002 4h-2l-12-.008-2-.001.002-4zm-24-.015l2 .001 12 .008h2l-.002 4h-2l-12-.008-2-.001.002-4zm-24-.015h2l12 .008 2 .002-.002 4-2-.002-12-.007-2-.001.002-4zm-24-.015h2l12 .008 2 .002-.002 4-2-.002-12-.007-2-.001.002-4zm-24-.016l2 .002 12 .007 2 .001-.002 4h-2l-12-.008-2-.002.002-4zm-24-.015l2 .002 12 .007 2 .001-.002 4h-2l-12-.008-2-.002.002-4zm-24-.015l2 .001 12 .008 2 .001-.002 4-2-.001-12-.008h-2l.002-4zm-24-.015l2 .001 12 .008 2 .001-.002 4-2-.001-12-.008h-2l.002-4zm-24-.015l2 .001 12 .008 2 .001-.002 4-2-.001-12-.008-2-.001.002-4zm-24-.015l2 .001 12 .008 2 .001-.002 4-2-.001-12-.008-2-.001.002-4zm-24-.015l2 .001 12 .008h2l-.002 4h-2l-12-.008-2-.001.002-4zm-24-.015l2 .001 12 .008h2l-.002 4h-2l-12-.008-2-.001.002-4zm-24-.015h2l12 .008 2 .002-.002 4-2-.002-12-.007-2-.001.002-4zm-24-.016l2 .002 12 .007 2 .002-.002 4-2-.002-12-.007-2-.002.002-4zm-24-.015l2 .002 12 .007 2 .001-.002 4h-2l-12-.008-2-.002.002-4zm-24-.015l2 .002 12 .007 2 .001-.002 4h-2l-12-.008-2-.002.002-4zm-24-.015l2 .001 12 .008 2 .001-.002 4-2-.001-12-.008h-2l.002-4zm-24-.015l2 .001 12 .008 2 .001-.002 4-2-.001-12-.008h-2l.002-4zm-24-.015l2 .001 12 .008 2 .001-.002 4-2-.001-12-.008-2-.001.002-4zm-24-.015l2 .001 12 .008h2l-.002 4h-2l-12-.008-2-.001.002-4zm-24-.015l2 .001 12 .008h2l-.002 4h-2l-12-.008-2-.001.002-4zm-24-.015h2l12 .008 2 .002-.002 4-2-.002-12-.007-2-.001.002-4zm-24-.015h2l12 .008 2 .002-.002 4-2-.002-12-.007-2-.001.002-4zm-24-.016l2 .002 12 .007 2 .002-.002 4-2-.002-12-.007-2-.002.002-4zm-24-.015l2 .002 12 .007 2 .001-.002 4h-2l-12-.008-2-.002.002-4zm-24-.015l2 .002 12 .007 2 .001-.002 4h-2l-12-.008-2-.002.002-4zm-24-.015l2 .001 12 .008 2 .001-.002 4-2-.001-12-.008h-2l.002-4z" fill="#FF2D55" fill-rule="nonzero"/><rect fill="#FC0" x="2518" y="1006" width="685" height="185" rx="23"/><text font-family="STYuanti-TC-Bold, Yuanti TC" font-size="50" font-weight="bold" fill="#191715"><tspan x="2736.5" y="1081">功能性类名</tspan> <tspan x="2491.15" y="1151">（Utilities || Helpers || Overrides）</tspan></text><path d="M2489.008 1104.985L2513 1117l-24.008 11.985.016-24zm-770.5-.485c5.945.004 10.878 4.331 11.827 10.007l10.165.007 2 .001-.002 4-2-.001-10.165-.006c-.956 5.675-5.895 9.996-11.84 9.992-6.628-.004-11.997-5.38-11.993-12.008.004-6.627 5.38-11.996 12.008-11.992zm751.992 10.473l2 .002 12 .007 2 .001-.002 4h-2l-12-.008-2-.002.002-4zm-24-.015l2 .001 12 .008 2 .001-.002 4-2-.001-12-.008h-2l.002-4zm-24-.015l2 .001 12 .008 2 .001-.002 4-2-.001-12-.008-2-.001.002-4zm-24-.015l2 .001 12 .008 2 .001-.002 4-2-.001-12-.008-2-.001.002-4zm-24-.015l2 .001 12 .008h2l-.002 4h-2l-12-.008-2-.001.002-4zm-24-.015l2 .001 12 .008h2l-.002 4h-2l-12-.008-2-.001.002-4zm-24-.015h2l12 .008 2 .002-.002 4-2-.002-12-.007-2-.001.002-4zm-24-.015h2l12 .008 2 .002-.002 4-2-.002-12-.007-2-.001.002-4zm-24-.016l2 .002 12 .007 2 .001-.002 4h-2l-12-.008-2-.002.002-4zm-24-.015l2 .002 12 .007 2 .001-.002 4h-2l-12-.008-2-.002.002-4zm-24-.015l2 .001 12 .008 2 .001-.002 4-2-.001-12-.008h-2l.002-4zm-24-.015l2 .001 12 .008 2 .001-.002 4-2-.001-12-.008h-2l.002-4zm-24-.015l2 .001 12 .008 2 .001-.002 4-2-.001-12-.008-2-.001.002-4zm-24-.015l2 .001 12 .008 2 .001-.002 4-2-.001-12-.008-2-.001.002-4zm-24-.015l2 .001 12 .008h2l-.002 4h-2l-12-.008-2-.001.002-4zm-24-.015h2l12 .009h2l-.002 4h-2l-12-.008-2-.001.002-4zm-24-.015h2l12 .008 2 .002-.002 4-2-.002-12-.007-2-.001.002-4zm-24-.016l2 .002 12 .007 2 .002-.002 4-2-.002-12-.007-2-.002.002-4zm-24-.015l2 .002 12 .007 2 .001-.002 4h-2l-12-.008-2-.002.002-4zm-24-.015l2 .002 12 .007 2 .001-.002 4h-2l-12-.008-2-.002.002-4zm-24-.015l2 .001 12 .008 2 .001-.002 4-2-.001-12-.008h-2l.002-4zm-24-.015l2 .001 12 .008 2 .001-.002 4-2-.001-12-.008h-2l.002-4zm-24-.015l2 .001 12 .008 2 .001-.002 4-2-.001-12-.008-2-.001.002-4zm-24-.015l2 .001 12 .008h2l-.002 4h-2l-12-.008-2-.001.002-4zm-24-.015l2 .001 12 .008h2l-.002 4h-2l-12-.008-2-.001.002-4zm-24-.015h2l12 .008 2 .002-.002 4-2-.002-12-.007-2-.001.002-4zm-24-.015h2l12 .008 2 .002-.002 4-2-.002-12-.007-2-.001.002-4zm-24-.016l2 .002 12 .007 2 .002-.002 4-2-.002-12-.007-2-.002.002-4zm-24-.015l2 .002 12 .007 2 .001-.002 4h-2l-12-.008-2-.002.002-4zm-24-.015l2 .001 12 .008 2 .001-.002 4-2-.001-12-.008h-2l.002-4zm-24-.015l2 .001 12 .008 2 .001-.002 4-2-.001-12-.008h-2l.002-4z" fill="#FC0" fill-rule="nonzero"/><rect fill="#FF9500" x="116" y="297" width="685" height="185" rx="23"/><text font-family="STYuanti-TC-Bold, Yuanti TC" font-size="50" font-weight="bold" fill="#F4EFE8"><tspan x="309" y="373">混合宏和函数</tspan> <tspan x="210.125" y="443">(Mixins and Functions)</tspan></text><path d="M824.991 375.983L801 388l24.009 11.983-.018-24zm676.5-.483c-5.945.004-10.878 4.332-11.826 10.008l-10.165.008-2 .001.002 4 2-.001 10.165-.007c.957 5.674 5.896 9.995 11.842 9.991 6.627-.005 11.996-5.381 11.991-12.009-.005-6.627-5.381-11.996-12.009-11.991zM845.5 385.968l-2 .002-12 .008-2 .002.003 4 2-.002 12-.008 2-.002-.003-4zm24-.017l-2 .002-12 .008-2 .002.003 4 2-.002 12-.008 2-.002-.003-4zm24-.017l-2 .001-12 .009-2 .001.003 4 2-.001 12-.009 2-.001-.003-4zm24-.017l-2 .001-12 .009-2 .001.003 4 2-.001 12-.009 2-.001-.003-4zm24-.017l-2 .001-12 .009-2 .001.003 4 2-.001 12-.009 2-.001-.003-4zm24-.017l-2 .001-12 .009-2 .001.003 4 2-.001 12-.009 2-.001-.003-4zm24-.018l-2 .002-12 .008-2 .002.002 4 2-.002 12-.008 2-.002-.002-4zm24-.017l-2 .002-12 .008-2 .002.002 4 2-.002 12-.008 2-.002-.002-4zm24-.017l-2 .002-12 .008-2 .002.002 4 2-.002 12-.008 2-.002-.002-4zm24-.017l-2 .001-12 .01h-2l.002 4h2l12-.01h2l-.002-4zm24-.017l-2 .001-12 .009-2 .001.002 4 2-.001 12-.009 2-.001-.002-4zm24-.017l-2 .001-12 .009-2 .001.002 4 2-.001 12-.009 2-.001-.002-4zm24-.017l-2 .001-12 .009-2 .001.002 4 2-.001 12-.009 2-.001-.002-4zm24-.017l-2 .001-12 .009-2 .001.002 4 2-.001 12-.009 2-.001-.002-4zm24-.018l-2 .002-12 .008-2 .002.002 4 2-.002 12-.008 2-.002-.002-4zm24-.017l-2 .002-12 .008-2 .002.002 4 2-.002 12-.008 2-.002-.002-4zm24-.017l-2 .002-12 .008-2 .002.002 4 2-.002 12-.008 2-.002-.002-4zm24-.017l-2 .001-12 .009-2 .001.002 4 2-.001 12-.009 2-.001-.002-4zm24-.017l-2 .001-12 .009-2 .001.002 4 2-.001 12-.009 2-.001-.002-4zm24-.017l-2 .001-12 .009-2 .001.002 4 2-.001 12-.009 2-.001-.002-4zm24-.017l-2 .001-12 .009-2 .001.002 4 2-.001 12-.009 2-.001-.002-4zm24-.018l-2 .002-12 .008-2 .002.002 4 2-.002 12-.008 2-.002-.002-4zm24-.017l-2 .002-12 .008-2 .002.002 4 2-.002 12-.008 2-.002-.002-4zm24-.017l-2 .002-12 .008-2 .002.002 4 2-.002 12-.008 2-.002-.002-4zm24-.017l-2 .002-12 .008-2 .002.002 4 2-.002 12-.008 2-.002-.002-4zm24-.017l-2 .001-12 .009-2 .001.002 4 2-.001 12-.009 2-.001-.002-4zm24-.017l-2 .001-12 .009-2 .001.002 4 2-.001 12-.009 2-.001-.002-4z" fill="#FF9500" fill-rule="nonzero"/><rect fill="#5856D6" x="53" y="579" width="685" height="185" rx="23"/><text font-family="STYuanti-TC-Bold, Yuanti TC" font-size="50" font-weight="bold" fill="#F4EFE8"><tspan x="209.2" y="655">基于HTML的样式</tspan> <tspan x="176.975" y="725">(Base HTML Styling)</tspan></text><path d="M761.991 657.983L738 670l24.009 11.983-.018-24zm676.5-.483c-5.945.004-10.878 4.332-11.826 10.008l-10.165.008-2 .001.002 4 2-.001 10.165-.007c.957 5.674 5.896 9.995 11.842 9.991 6.627-.005 11.996-5.381 11.991-12.009-.005-6.627-5.381-11.996-12.009-11.991zM782.5 667.968l-2 .002-12 .008-2 .002.003 4 2-.002 12-.008 2-.002-.003-4zm24-.017l-2 .002-12 .008-2 .002.003 4 2-.002 12-.008 2-.002-.003-4zm24-.017l-2 .001-12 .009-2 .001.003 4 2-.001 12-.009 2-.001-.003-4zm24-.017l-2 .001-12 .009-2 .001.003 4 2-.001 12-.009 2-.001-.003-4zm24-.017l-2 .001-12 .009-2 .001.003 4 2-.001 12-.009 2-.001-.003-4zm24-.017l-2 .001-12 .009-2 .001.003 4 2-.001 12-.009 2-.001-.003-4zm24-.018l-2 .002-12 .008-2 .002.002 4 2-.002 12-.008 2-.002-.002-4zm24-.017l-2 .002-12 .008-2 .002.002 4 2-.002 12-.008 2-.002-.002-4zm24-.017l-2 .002-12 .008-2 .002.002 4 2-.002 12-.008 2-.002-.002-4zm24-.017l-2 .001-12 .01h-2l.002 4h2l12-.01h2l-.002-4zm24-.017l-2 .001-12 .009-2 .001.002 4 2-.001 12-.009 2-.001-.002-4zm24-.017l-2 .001-12 .009-2 .001.002 4 2-.001 12-.009 2-.001-.002-4zm24-.017l-2 .001-12 .009-2 .001.002 4 2-.001 12-.009 2-.001-.002-4zm24-.017l-2 .001-12 .009-2 .001.002 4 2-.001 12-.009 2-.001-.002-4zm24-.018l-2 .002-12 .008-2 .002.002 4 2-.002 12-.008 2-.002-.002-4zm24-.017l-2 .002-12 .008-2 .002.002 4 2-.002 12-.008 2-.002-.002-4zm24-.017l-2 .002-12 .008-2 .002.002 4 2-.002 12-.008 2-.002-.002-4zm24-.017l-2 .001-12 .009-2 .001.002 4 2-.001 12-.009 2-.001-.002-4zm24-.017l-2 .001-12 .009-2 .001.002 4 2-.001 12-.009 2-.001-.002-4zm24-.017l-2 .001-12 .009-2 .001.002 4 2-.001 12-.009 2-.001-.002-4zm24-.017l-2 .001-12 .009-2 .001.002 4 2-.001 12-.009 2-.001-.002-4zm24-.018l-2 .002-12 .008-2 .002.002 4 2-.002 12-.008 2-.002-.002-4zm24-.017l-2 .002-12 .008-2 .002.002 4 2-.002 12-.008 2-.002-.002-4zm24-.017l-2 .002-12 .008-2 .002.002 4 2-.002 12-.008 2-.002-.002-4zm24-.017l-2 .002-12 .008-2 .002.002 4 2-.002 12-.008 2-.002-.002-4zm24-.017l-2 .001-12 .009-2 .001.002 4 2-.001 12-.009 2-.001-.002-4zm24-.017l-2 .001-12 .009-2 .001.002 4 2-.001 12-.009 2-.001-.002-4z" fill="#5856D6" fill-rule="nonzero"/><rect fill="#5AC8FA" x="33" y="858" width="685" height="185" rx="23"/><text font-family="STYuanti-TC-Bold, Yuanti TC" font-size="50" font-weight="bold" fill="#F4EFE8"><tspan x="172.475" y="969">具有指定性UI 组件</tspan></text><path d="M741.991 936.983L718 949l24.009 11.983-.018-24zm676.5-.483c-5.945.004-10.878 4.332-11.826 10.008l-10.165.008-2 .001.002 4 2-.001 10.165-.007c.957 5.674 5.896 9.995 11.842 9.991 6.627-.005 11.996-5.381 11.991-12.009-.005-6.627-5.381-11.996-12.009-11.991zM762.5 946.968l-2 .002-12 .008-2 .002.003 4 2-.002 12-.008 2-.002-.003-4zm24-.017l-2 .002-12 .008-2 .002.003 4 2-.002 12-.008 2-.002-.003-4zm24-.017l-2 .001-12 .009-2 .001.003 4 2-.001 12-.009 2-.001-.003-4zm24-.017l-2 .001-12 .009-2 .001.003 4 2-.001 12-.009 2-.001-.003-4zm24-.017l-2 .001-12 .009-2 .001.003 4 2-.001 12-.009 2-.001-.003-4zm24-.017l-2 .001-12 .009-2 .001.003 4 2-.001 12-.009 2-.001-.003-4zm24-.018l-2 .002-12 .008-2 .002.002 4 2-.002 12-.008 2-.002-.002-4zm24-.017l-2 .002-12 .008-2 .002.002 4 2-.002 12-.008 2-.002-.002-4zm24-.017l-2 .002-12 .008-2 .002.002 4 2-.002 12-.008 2-.002-.002-4zm24-.017l-2 .001-12 .01h-2l.002 4h2l12-.01h2l-.002-4zm24-.017l-2 .001-12 .009-2 .001.002 4 2-.001 12-.009 2-.001-.002-4zm24-.017l-2 .001-12 .009-2 .001.002 4 2-.001 12-.009 2-.001-.002-4zm24-.017l-2 .001-12 .009-2 .001.002 4 2-.001 12-.009 2-.001-.002-4zm24-.017l-2 .001-12 .009-2 .001.002 4 2-.001 12-.009 2-.001-.002-4zm24-.018l-2 .002-12 .008-2 .002.002 4 2-.002 12-.008 2-.002-.002-4zm24-.017l-2 .002-12 .008-2 .002.002 4 2-.002 12-.008 2-.002-.002-4zm24-.017l-2 .002-12 .008-2 .002.002 4 2-.002 12-.008 2-.002-.002-4zm24-.017l-2 .001-12 .009-2 .001.002 4 2-.001 12-.009 2-.001-.002-4zm24-.017l-2 .001-12 .009-2 .001.002 4 2-.001 12-.009 2-.001-.002-4zm24-.017l-2 .001-12 .009-2 .001.002 4 2-.001 12-.009 2-.001-.002-4zm24-.017l-2 .001-12 .009-2 .001.002 4 2-.001 12-.009 2-.001-.002-4zm24-.018l-2 .002-12 .008-2 .002.002 4 2-.002 12-.008 2-.002-.002-4zm24-.017l-2 .002-12 .008-2 .002.002 4 2-.002 12-.008 2-.002-.002-4zm24-.017l-2 .002-12 .008-2 .002.002 4 2-.002 12-.008 2-.002-.002-4zm24-.017l-2 .002-12 .008-2 .002.002 4 2-.002 12-.008 2-.002-.002-4zm24-.017l-2 .001-12 .009-2 .001.002 4 2-.001 12-.009 2-.001-.002-4zm24-.017l-2 .001-12 .009-2 .001.002 4 2-.001 12-.009 2-.001-.002-4z" fill="#5AC8FA" fill-rule="nonzero"/><path d="M2327.056 185.688l7.256 3.368-1.684 3.628-149.478 322.088 16.328 7.578L2161 553l-1.433-49.173 16.326 7.577 149.479-322.088 1.684-3.628zm-400.72 795.905l7.07 3.743-1.87 3.536-204.414 386.112 15.908 8.423L1703 1412l1.144-49.18 15.907 8.421 204.414-386.113 1.871-3.535z" fill="#F4EFE8" fill-rule="nonzero"/><text transform="rotate(-63 2039 770)" font-family="STYuanti-TC-Bold, Yuanti TC" font-size="70" font-weight="bold" fill="#F4EFE8"><tspan x="1820.005" y="795">EXPLICITINESS</tspan></text><path d="M929.234 185.803l1.481 3.715 144.203 361.629 16.72-6.666-4.138 49.019-36.733-32.722 16.72-6.667-144.202-361.63-1.482-3.715 7.43-2.963z" fill="#F4EFE8" fill-rule="nonzero"/><path d="M1271.657 983.591l-7.066 3.752 1.876 3.533 211.369 398.137-15.9 8.44L1502 1426l-1.2-49.179-15.898 8.44-211.369-398.137-1.876-3.533z" fill="#F4EFE8" fill-rule="nonzero"/><text transform="rotate(66 1187.5 804)" font-family="STYuanti-TC-Bold, Yuanti TC" font-size="70" font-weight="bold" fill="#F4EFE8"><tspan x="1007.495" y="829">SPECIFICITY</tspan></text></g></svg>